<?xml version="1.0" encoding="utf-8"?>
<!-- Generator: Adobe Illustrator 22.0.0, SVG Export Plug-In . SVG Version: 6.00 Build 0)  -->
<svg version="1.1" id="圖層_1" xmlns="http://www.w3.org/2000/svg" xmlns:xlink="http://www.w3.org/1999/xlink" x="0px" y="0px"
	 viewBox="0 0 420 289.5" style="enable-background:new 0 0 420 289.5;" xml:space="preserve">
<g>
	<path d="M337.9,272c-34.5,0-68.9,0-103.5,0c0.2-0.6,0.4-1.1,0.6-1.5c5-11,9.8-22.2,14.1-33.5c4.4-11.4,7.6-23.2,9.3-35.3
		c0.8-5.2,1.2-10.5,1-15.8c0-0.5-0.1-1.1-0.1-1.6c-2-1-3.9-2-5.8-3c-4-2.1-7.5-4.8-10.5-8.1c-4.4-4.8-7.9-10.1-11-15.7
		c-1.8-3.2-3.6-6.5-5.5-9.7c-1.8-3-4-5.7-6.7-7.9c-1.9-1.6-4.1-2.6-6.4-3.4c-1.4-0.5-2.8-0.1-4.1,0.4c-3.4,1.2-6,3.4-8.4,6
		c-2.1,2.3-3.7,4.9-5.2,7.6c-1.9,3.4-3.9,6.9-5.8,10.3c-2.6,4.6-5.8,8.8-9.4,12.7c-2.8,3-6,5.6-9.7,7.5c-1.8,0.9-3.5,1.9-5.4,2.7
		c-0.7,0.3-1.1,0.8-1.1,1.5c0,2.3-0.1,4.6,0.1,6.9c1.2,17.2,5.6,33.6,12.1,49.5c4,9.7,8.2,19.2,12.3,28.8c0.2,0.4,0.4,0.9,0.6,1.4
		c-34.5,0-68.9,0-103.4,0c0-0.3-0.1-0.7-0.1-1.1c0-2.1,0-4.2,0-6.3c-0.2-6.8-0.3-13.7-0.6-20.5c-0.1-3.4-0.5-6.7-1.4-10
		c-0.7-2.7-0.9-2.9-3.6-2.5c-3.8,0.6-7.5,1.4-11.2,2.2c-3.5,0.8-7,1.8-10.5,2.7c-2.8,0.7-5.7,1.2-8.7,1c-2.8-0.2-4.7-1.4-5.6-4.1
		c-1.7-5.2-3.5-10.5-5.2-15.7c-2.6-8.3-5.1-16.7-7.6-25.1c-0.2-0.7-0.6-1.1-1.3-1.5c-5.4-3-10.7-6.3-15.7-9.9
		c-3.1-2.2-5.9-4.6-8.3-7.6c-1-1.3-1.9-2.7-2.3-4.4c-0.4-1.8,0-3.3,1.2-4.6c0.4-0.4,0.8-0.8,1.3-1.2c2.9-2.6,5.8-5.2,8.6-7.9
		c2-1.9,3.9-3.9,5.6-6c1.3-1.6,2.4-3.4,3.5-5.2c1.5-2.4,1.6-5.1,0.9-7.8c-2.1-8.4-3.2-17-3.1-25.7c0.4-22.6,7.1-43.1,21.4-60.7
		c13.2-16.2,30.2-26.6,50.8-30.6c19.3-3.8,37.9-1.2,55.6,7.2c22.2,10.5,38.1,27.2,48.7,49.3c1.1,2.3,2,4.7,3,7
		c1.6,3.9,4.5,6.3,8.4,7.5c1.4,0.4,2.9,0.4,4.3-0.1c3.8-1.4,6.5-3.8,8-7.6c8.5-21.7,22.5-38.9,42.3-51.1
		c10.7-6.6,22.2-10.8,34.6-12.7c33.1-5,65.1,8.6,84.6,35.9c8.6,12,13.9,25.3,16.4,39.8c1.3,7.5,1.7,15,1.3,22.5
		c-0.3,6.6-1.3,13.1-2.9,19.5c-0.7,2.7-0.5,5.3,0.8,7.8c1.5,2.8,3.3,5.3,5.5,7.6c2.8,2.8,5.8,5.6,8.7,8.3c1.5,1.4,3,2.7,4.4,4.1
		c1.9,1.8,2.4,3.7,1.3,6.1c-0.5,1.1-1.1,2.1-1.8,3c-2,2.7-4.5,5-7.2,7c-5.4,4-11.1,7.5-16.9,10.8c-0.7,0.4-1.1,0.9-1.3,1.7
		c-4,13.1-8.1,26.1-12.2,39.2c-0.2,0.7-0.5,1.3-0.7,1.9c-0.8,2.3-2.5,3.3-4.8,3.5c-3,0.4-6,0-8.8-0.8c-6.3-1.8-12.6-3.4-19.1-4.6
		c-1.4-0.3-2.9-0.4-4.4-0.5c-1.3-0.1-1.6,0.1-1.9,1.3c-0.6,2.2-1.1,4.5-1.4,6.7c-0.7,6.4-0.9,12.8-1,19.2c0,3.9,0,7.7-0.1,11.6
		C338,270.8,337.9,271.3,337.9,272z M179.1,266.1c-0.2-0.6-0.4-1-0.6-1.5c-1.9-4.6-3.9-9.2-5.8-13.8c-6.1-14.5-11.2-29.4-13.7-45
		c-1-6.4-1.8-12.9-1.7-19.4c0-1.2,0.1-2.5,0.3-3.6c0.3-1.3,0.7-2.7,2-3.5c1.9-1.2,3.8-2.4,5.8-3.4c4.6-2.3,8.6-5.3,11.8-9.4
		c1.8-2.3,3.7-4.7,5.2-7.2c2.4-3.9,4.7-8,6.9-12.1c1.8-3.2,3.7-6.2,6.1-8.9c3.1-3.4,6.6-6.3,10.9-8c3.7-1.5,7.4-1.5,11.1,0
		c2.3,0.9,4.5,2.2,6.4,3.8c3.4,2.7,6.2,5.9,8.4,9.5c2,3.3,3.8,6.6,5.7,9.9c3,5.4,6.2,10.5,10.4,15c2.5,2.6,5.3,4.8,8.4,6.5
		c2.3,1.2,4.5,2.6,6.7,3.8c1.8,1,2.5,2.5,2.8,4.4c0.2,1.3,0.2,2.6,0.3,3.9c0.1,4.5-0.3,9-0.9,13.4c-1.6,12.1-4.5,23.8-8.7,35.2
		c-3.5,9.7-7.6,19.2-11.6,28.6c-0.2,0.5-0.4,1-0.6,1.6c28.7,0.1,57.2,0.2,85.8,0.3c0-0.5,0.1-0.9,0.1-1.3c0.1-3.9,0.1-7.8,0.2-11.7
		c0.1-5.7,0.4-11.4,1.2-17.1c0.4-2.6,0.9-5.1,2.1-7.4c1.3-2.5,3.2-3.9,6-4.4c2-0.3,3.9-0.1,5.8,0.2c8.5,1.5,16.8,3.6,25,6.2
		c0.5,0.2,1,0.3,1.6,0.5c0.2-0.6,0.4-1,0.6-1.5c1-3,2-5.9,2.9-8.9c2.7-8.6,5.3-17.3,7.9-25.9c0.6-1.9,1.1-3.9,1.6-5.8
		c0.2-0.9,0.6-1.7,1.4-2.2c1.4-1,2.9-2,4.4-2.9c5-2.9,10-6,14.6-9.5c1.8-1.4,3.4-3,5.1-4.6c0.4-0.4,0.8-1,1.2-1.5
		c-0.4-0.4-0.7-0.7-1-1c-1.8-1.6-3.5-3.2-5.3-4.8c-3-2.8-6-5.6-8.6-8.8c-2.1-2.6-4-5.4-5.2-8.6c-1.2-3.2-1.6-6.4-0.7-9.9
		c2.1-7.6,2.9-15.4,3-23.3c0-5.6-0.4-11.1-1.4-16.6c-2.3-13.2-7.2-25.4-14.9-36.3c-16.9-23.8-43.9-36.4-72.9-33.9
		C295,26,285,28.8,275.7,33.5c-19.7,9.8-34.1,24.9-43.6,44.7c-0.3,0.5-0.4,1.1-0.6,1.6c-1.4,3.9-3,7.7-5.7,11
		c-2.6,3-5.8,5.1-9.5,6.3c-1.8,0.6-3.7,0.8-5.6,0.6c-4.9-0.7-8.8-3-12.1-6.6c-1.9-2.2-3.4-4.6-4.5-7.4c-0.7-1.8-1.2-3.7-2.1-5.5
		c-8-16.6-19.5-30.1-35.2-39.9c-18.1-11.4-37.8-15.8-59-12.2C79.2,29,63.8,37.8,51.4,51.8c-13.6,15.4-20.6,33.6-21.8,54
		c-0.7,10.4,0.4,20.6,3.1,30.6c0.4,1.3,0.3,2.6,0.2,3.9c-0.3,2.6-1.1,5.1-2.3,7.4c-2.1,3.9-4.8,7.4-8,10.4c-3.2,3.1-6.5,6.1-9.7,9.1
		c-0.4,0.4-0.8,0.7-1.2,1.2c0.4,0.5,0.7,0.9,1,1.3c1.9,2.3,4.1,4.2,6.6,5.8c5.7,3.7,11.4,7.4,17.1,11c1.1,0.7,1.7,1.5,2,2.8
		c0.3,1.3,0.6,2.6,1,3.8c1.2,4,2.4,7.9,3.7,11.9c2.5,8.2,5.1,16.3,7.6,24.5c0.2,0.6,0.4,1.1,0.6,1.7c0.3-0.1,0.5-0.1,0.6-0.1
		c7-2.2,14.2-4.1,21.4-5.6c2.5-0.5,5-1,7.5-1.2c4.6-0.5,7.8,1.6,9.5,5.9c0.3,0.8,0.6,1.7,0.8,2.5c1.2,4.7,1.5,9.5,1.7,14.2
		c0.2,6,0.3,12,0.4,18c0,0.4,0.1,0.8,0.1,1.4C121.9,266.3,150.4,266.2,179.1,266.1z"/>
	<path d="M307.9,60.1c10.7,0,21.4,0,32.1,0c1.2,0,2.1,0.3,3,1c0.3,0.3,0.7,0.6,1,0.9c9.2,8.3,18.4,16.7,27.6,25
		c0.3,0.3,0.6,0.5,0.9,0.8c1.1,1,1.7,2.2,1.7,3.8c-0.1,15.3,0,30.6,0,45.9c0,0.5,0,1.1,0,1.6c0,2.9-2.1,5.1-5,5.3
		c-0.6,0-1.2,0-1.8,0c-16.6,0-33.2,0-49.9,0c-1.2,0-2,0.3-2.8,1.3c-6.1,8-12.2,15.9-18.3,23.8c-0.2,0.2-0.4,0.5-0.5,0.7
		c-1.5,2.2-3.9,2.3-6,1.4c-0.5-0.2-1-0.5-1.4-0.7c-13.8-7.5-27.5-15-41.3-22.6c-0.8-0.5-1.6-1.1-2.3-1.8c-1.2-1.2-1.5-2.7-1.5-4.4
		c0-16.1,0-32.2,0-48.2c0-0.6,0-1.3-0.1-1.9c-0.3-1.4,0.1-2.5,1-3.5c0.3-0.3,0.6-0.6,0.9-0.9c8.6-8.4,17.2-16.7,25.7-25.1
		c1.6-1.6,3.3-2.4,5.7-2.3C287,60.2,297.4,60.1,307.9,60.1z M330.7,67.3c0,0.5-0.1,1-0.1,1.4c0,2.1,0,4.2-0.1,6.3c0,0.5,0,1-0.1,1.5
		c-0.3,1.7-1.6,2.8-3.2,2.9c-1.7,0.1-3.1-0.9-3.6-2.6c-0.2-0.6-0.2-1.3-0.2-1.9c0-2.1,0-4.1,0-6.2c0-0.4,0-0.9-0.1-1.3
		c-14.7,0-29.3,0-43.8,0c-0.3,1.7-0.2,7.7,0.1,8.9c0.5,0,1,0,1.6,0c3,0,6.1,0,9.1,0c0.7,0,1.4,0,2,0.1c1.6,0.3,2.8,1.7,2.9,3.3
		c0.1,1.6-1,3.1-2.6,3.5c-0.7,0.2-1.3,0.2-2,0.2c-3.2,0-6.5,0-9.7,0c-0.5,0-0.9,0-1.5,0.1c0,5.2,0,10.2,0,15.3
		c5.6,2.5,7.4,7.7,6.4,11.9c-1.1,4.5-5.1,7.7-9.8,7.9c-4.5,0.1-8.6-3-9.9-7.4c-1.4-4.9,0.6-9.2,6-12.3c0-9.1,0-18.2,0-27.5
		c-0.3,0.3-0.5,0.4-0.7,0.6c-6.8,6.6-13.5,13.2-20.3,19.7c-0.5,0.5-0.7,1-0.7,1.7c0,6.9,0,13.8,0,20.7c0,0.3,0.1,0.6,0.1,1.1
		c0.6,0,1,0,1.5,0c2.1,0,4.1,0,6.2,0c0.6,0,1.3,0.1,1.9,0.3c1.4,0.5,2.3,1.7,2.3,3.1c0.1,1.4-0.8,2.8-2.2,3.3
		c-0.6,0.2-1.3,0.3-2,0.3c-2.2,0-4.4,0-6.6,0c-0.4,0-0.7,0.1-1.1,0.1c0,2.7,0,5.2,0,7.9c10,0,19.9,0,29.8,0
		c3.6-5.4,7.6-7.3,12.6-5.7c4.3,1.4,7.2,5.3,7.1,9.9c-0.1,4.5-3.1,8.5-7.6,9.7c-2.1,0.6-4.3,0.4-6.3-0.4c-2.9-1.2-4.9-3.3-6-6.2
		c-9.9,0-19.7,0-29.6,0c0,1.5,0,3,0,4.6c8.2,4.5,16.5,9,25,13.7c0-2.3,0-4.3,0-6.3c0-0.9,0-1.8,0.1-2.6c0.2-1.7,1.6-2.9,3.3-3
		c1.7-0.1,3.1,0.9,3.6,2.7c0.1,0.6,0.2,1.2,0.2,1.7c0,3.7,0,7.5,0,11.4c2.8,1.5,5.7,3.1,8.7,4.8c1-1.4,2-2.6,3-3.8
		c5.7-7.3,11.3-14.6,17-21.9c0.4-0.6,1.2-1,1.9-1.3c0.7-0.3,1.5-0.2,2.3-0.2c9.7,0,19.4,0,29,0c0.6,0,1.1,0,1.8-0.1
		c0-1.8,0.1-3.3,0-5c-0.7,0-1.3,0-1.8,0c-4.5,0-9.1,0-13.6,0c-0.8,0-1.6-0.1-2.3-0.3c-1.6-0.4-2.7-1.9-2.6-3.4c0.1-1.6,1.3-3,3-3.3
		c0.7-0.1,1.5-0.1,2.2-0.1c4.5,0,9.1,0,13.6,0c0.5,0,1-0.1,1.6-0.1c0-5,0-9.8,0-14.8c-2.4-1-4.2-2.6-5.4-4.9
		c-1.2-2.4-1.4-4.9-0.7-7.4c1.2-4.2,5.2-7.3,9.4-7.4c4.7-0.1,8.8,2.8,10.1,7.2c0.7,2.1,0.6,4.2-0.1,6.3c-1.1,3.1-3.2,5-6.1,6.3
		c0,9,0,17.9,0,26.9c4.5,0,8.9,0,13.5,0c0-0.7,0-1.3,0-1.9c0-12.2,0-24.4,0-36.7c0-1.7,0-3.3,0-5c0-0.9-0.2-1.5-0.9-2
		c-1.2-1-2.3-2-3.4-3c-7.5-6.8-14.9-13.5-22.4-20.2c-0.4-0.4-1-0.8-1.4-0.8C336.1,67.2,333.4,67.3,330.7,67.3z M349.9,97.5
		c-1.7,0-3.1,1.4-3,3.1c0,1.7,1.4,3.1,3.1,3c1.6-0.1,2.9-1.4,3-3C353,98.9,351.6,97.5,349.9,97.5z M289.8,137.2c1.7,0,3-1.3,3-2.9
		c0-1.7-1.3-3.1-3-3.1c-1.7,0-3.1,1.4-3,3.1C286.8,135.9,288.1,137.2,289.8,137.2z M278.9,108.3c0-1.7-1.3-3-2.9-3
		c-1.8,0-3.1,1.3-3,3c0,1.7,1.3,3,2.9,3C277.6,111.4,278.9,110.1,278.9,108.3z"/>
	<path d="M106.4,54.7c11.1,0.1,22.1,1.8,32.5,6.4c12.8,5.7,23.7,13.8,31.6,25.6c4.3,6.4,6.9,13.4,8.6,20.9
		c2.6,11.5,0.6,22.1-5.3,32.1c-3.8,6.4-8.5,12.1-14.1,16.9c-6.3,5.4-13.6,8.8-21.8,10.1c-7.3,1.2-14.1-0.2-20.3-4.3
		c-4.9-3.2-9.1-7.2-12-12.4c-1.4-2.5-2.9-4.9-4.4-7.3c-3.1-5.3-7.6-9.2-13.1-11.7c-4.2-1.9-8.4-3.6-13-4.4
		c-3.8-0.6-7.6-0.5-11.3,0.3c-2,0.4-4,0.4-5.9-0.2c-14.2-4.2-21.3-18.8-20.3-30.1c0.4-5,2.2-9.6,4.8-13.9c3.8-6.1,8.9-11,14.9-15
		c7.2-4.7,15.1-7.8,23.4-9.9C88.9,55.9,97.5,54.8,106.4,54.7z M106.3,62.1c-2.5,0.1-5,0.2-7.5,0.4c-7.5,0.5-14.8,1.9-22,4.2
		c-6.4,2.1-12.5,4.9-17.9,8.9c-4.9,3.7-9,8-11.7,13.5c-3.4,6.8-3.3,13.7,0.4,20.4c2.6,4.8,6.4,8.2,11.6,10c0.4,0.1,0.8,0.3,1.3,0.3
		c1.8,0,3.6,0,5.4-0.3c3.4-0.5,6.8-0.8,10.2-0.2c4.6,0.8,8.9,2.3,13.1,4.1c8.1,3.4,14.5,8.7,18.9,16.4c1.2,2.1,2.5,4.1,3.7,6.2
		c2.3,4.1,5.5,7.3,9.3,10c4.7,3.3,10,4.4,15.6,3.4c6.6-1.1,12.6-3.8,17.8-8.2c5.1-4.3,9.3-9.3,12.7-15c5.2-8.6,6.7-17.7,4.5-27.6
		c-2-8.8-5.8-16.6-11.7-23.4c-6.9-8-15.5-13.7-25.2-17.8C125.8,63.7,116.2,62.2,106.3,62.1z"/>
	<path d="M218.8,116.3c-4.5,0-9,0-13.5,0c-0.3,0.5-0.5,1-0.8,1.4c-2.3,4-7,5.9-11.5,4.7c-4.3-1.2-7.5-5.3-7.5-9.7
		c0-4.7,3.1-8.7,7.8-10c4.3-1.1,9,0.9,11.3,4.9c0.2,0.3,0.3,0.6,0.5,0.9c0.2,0.5,0.5,0.6,1,0.6c4,0,7.9,0,11.9,0c0.8,0,1-0.5,1.2-1
		c1.4-2.7,3.5-4.5,6.5-5.3c5.5-1.6,11.5,2,12.6,7.7c1,5-1.7,10-6.5,11.7c-4.8,1.7-10-0.3-12.4-4.8C219.2,117,219,116.7,218.8,116.3z
		 M231.3,112.6c0-1.7-1.3-3-2.9-3c-1.7,0-3.1,1.3-3.1,3.1c0,1.7,1.3,3,2.9,3C230,115.7,231.3,114.3,231.3,112.6z"/>
	<path d="M319.6,121.5c-3,0-5.8,0-8.8,0c-0.8-3.2-1.6-6.3-2.5-9.6c-3.2,0-6.3,0-9.6,0c-1.4,3.1-2.8,6.3-4.3,9.5c-2.8,0-5.6,0-8.6,0
		c0.2-0.5,0.3-0.9,0.5-1.2c4.5-9.4,9-18.7,13.5-28.1c0.5-0.9,1-1.3,2-1.2c2.3,0.1,4.6,0,6.9,0c0.4,0,0.9,0,1.4,0.1
		C313.3,101,316.4,111.2,319.6,121.5z M305.1,98.2c-0.1,0-0.2-0.1-0.3-0.1c-1.5,3.3-2.9,6.7-4.4,10.1c2.5,0,4.7,0,7.1,0
		C306.6,104.9,305.8,101.6,305.1,98.2z"/>
	<path d="M334.3,90.9c-0.9,10.4-1.8,20.6-2.7,31c-3.2,0-6.3,0-9.6,0c0.9-10.4,1.8-20.6,2.7-31C327.9,90.9,331,90.9,334.3,90.9z"/>
	<path d="M100,99c0.4,0.2,0.6,0.3,0.9,0.4c8.1,2.7,13.7,8.1,17.5,15.6c0.7,1.3,1.5,2,2.9,2.3c7.2,1.5,13.3-0.4,18-6.2
		c2.3-2.8,3.7-6.1,4.1-9.7c0.2-2.2-0.3-4.2-1.8-5.8c-2.5-2.8-5.6-4.8-9.2-5.6c-3.1-0.7-5.6,0.3-7,2.9c-0.5,0.9-0.7,1.7-0.3,2.7
		c0.3,0.9,0.7,1.7,1.1,2.6c0.4,0.8,1,1.3,1.8,1.6c0.2,0.1,0.5,0.2,0.7,0.3c1.7,0.9,2.6,2.6,2,4.4c-0.5,1.7-2.3,2.8-4.2,2.5
		c-1.8-0.3-3.4-1-4.7-2.3c-2.9-2.9-4.5-6.5-4.4-10.7c0-1.2,0.4-2.4,0.9-3.5c2.6-6,8.7-9,15.2-7.6c5.4,1.2,10,3.9,13.6,8.1
		c3.2,3.6,4.2,7.7,3.5,12.4c-1.4,10.2-9.3,19.1-19.4,21.4c-2.4,0.6-4.9,0.9-7.4,0.6c-0.3,0-0.7,0-1,0c0,2,2.9,8.4,4.5,10.2
		c0.1,0,0.2,0,0.3-0.1c3-3.1,6.7-4.6,10.9-5.2c4-0.6,8.1-0.8,12.1-0.3c1.2,0.1,2.4,0.5,3.5,0.9c0.8,0.3,1.4,1,2,1.7
		c1,1.3,0.9,3.1-0.1,4.4c-1,1.2-2.7,1.7-4.1,1c-1.3-0.6-2.6-0.7-4-0.7c-3.2,0-6.4-0.1-9.5,0.6c-1.2,0.3-2.3,0.7-3.4,1.2
		c-1,0.4-1.7,1.2-1.7,2.5c1.2,0.9,2.5,1.8,4,2.3c0.5,0.2,1.1,0.1,1.6,0.1c2.2-0.1,3.8,0.9,4.2,2.9c0.4,1.8-0.7,3.5-2.6,4.2
		c-1.5,0.5-3,0.6-4.5,0.2c-1.5-0.5-3-1-4.3-1.8c-6.6-3.9-11.5-9.3-14.3-16.5c-1.1-2.9-2.1-5.8-3.2-8.6c-0.9-2.2-1.8-4.3-2.9-6.4
		c-3.3-6.3-8.4-10.2-15.2-11.8c-3.7-0.9-7.5-1.3-11.3-1.1c-0.5,0-1.1,0.1-1.7,0.2c0.1,0.4,0.2,0.8,0.3,1.1c1.1,2.6,2.5,4.9,5,6.5
		c1.7,1.1,2.1,3.3,1.1,4.9c-1,1.6-2.9,2.1-4.8,1.3c-1.6-0.7-3-1.9-4.1-3.2c-2.2-2.5-3.7-5.4-4.7-8.5c-0.1-0.4-0.3-0.8-0.4-1.4
		c-1,0.1-2,0.2-3,0.3c-2,0.2-4,0.5-6,0.7c-2.7,0.2-5.4-0.2-7.7-1.8c-3-2-4.5-4.9-4.7-8.5c0-0.7,0.1-1.5,0.3-2.2
		c0.5-1.6,1.9-2.6,3.6-2.5c1.6,0.1,2.9,1.1,3.3,2.6c0.2,0.6,0.2,1.2,0.2,1.7c0.2,1.9,1.1,3,3,3.1c1.5,0.1,2.9-0.1,4.4-0.2
		c5.2-0.5,10.3-1.1,15.5-1.5c2.3-0.2,4.7,0,7,0.1c0.7,0,1.1-0.2,1.4-0.7c1.7-2.7,3-5.5,3.5-8.6c0.3-1.5,0.2-2.9-0.2-4.4
		c-0.6-1.8-1.7-3-3.5-3.5c-2.9-0.8-5.9-1-8.8-0.3c-2.5,0.6-3.9,2.6-5.2,4.6c-0.4,0.6,0.1,1,0.3,1.5c1,2.2-0.2,4.7-2.6,5.1
		c-0.7,0.1-1.6,0-2.3-0.3c-2.4-1-3.8-3.6-3.3-6.2c0.1-0.5,0.2-1.1,0.4-1.6c2.5-5.8,6.5-9.9,13-10.7c3.1-0.4,6.1-0.3,9.2,0.4
		c6.8,1.6,11,7.2,10.5,14.2c-0.2,3.8-1.5,7.4-3.2,10.8C100.5,98.1,100.2,98.6,100,99z"/>
</g>
</svg>
